<?xml version="1.0" encoding="UTF-8"?>
<!-- Generator: Adobe Illustrator 20.0.0, SVG Export Plug-In . SVG Version: 6.00 Build 0)  -->
<svg version="1.1" id="Layer_1" xmlns="http://www.w3.org/2000/svg" xmlns:xlink="http://www.w3.org/1999/xlink" x="0px" y="0px" viewBox="0 0 460 460" style="enable-background:new 0 0 460 460;" xml:space="preserve">
<style type="text/css">
	.st0{clip-path:url(#SVGID_2_);fill:none;stroke:#FF0000;stroke-width:7;}
</style>
<g>
	<defs>
		<rect id="SVGID_1_" width="460" height="460"/>
	</defs>
	<clipPath id="SVGID_2_">
		<use xlink:href="#SVGID_1_" style="overflow:visible;"/>
	</clipPath>
	<path class="st0" d="M60.1,172.2l2.8-0.3c2-0.2,4-0.5,6-0.7l12.1-1.6c4.9-0.6,9.7-1.3,14.6-1.9l13.7-1.8c6.9-0.9,13.8-1.8,20.7-2.7   c2.8-0.4,5.8-0.8,8.6-1.4c0.1,0,0.4-0.2,0.5-0.3c2.7-5,5.3-10,7.9-15.1c2.1-4,4.2-8,6.3-12c2.3-4.4,4.7-8.7,7-13.1   c2.8-5.1,5.6-10.3,8.3-15.5c2.8-5.3,5.5-10.7,8.2-16c1.8-3.6,3.6-7.1,5.5-10.7c0.9-1.8,1.9-3.6,2.9-5.5c0.9-1.7,1.8-3.3,2.7-5   c2.6-5,5.2-10,7.7-15c2-4,4.1-7.9,6.1-11.9c2.4-4.6,4.8-9.3,7.3-13.9c3.3-6.3,6.7-12.6,10.1-18.9c0.5-0.9,1-1.5,1.5-2.1   c0.2-0.2,0.3-0.4,0.5-0.6l1.5-2l2.4,0.8l0.4,0.1l1.8,0.6l0.8,1.8c0.6,1.9,1.2,3.9,1.8,5.8c1.3,4.3,2.7,8.7,3.9,13.1   c2,7.3,4,14.6,6,21.9c1.3,4.8,2.6,9.6,3.9,14.4l1.7,6.1c2.6,9.4,5.3,19.2,8,28.7c1.6,5.7,3.3,11.3,5,16.9   c1.9,6.3,3.8,12.6,5.6,18.9c0,0.2-0.1,0.1-0.1,0c0.1,0,0.2,0.1,0.8,0.2c4.9,0.6,9.9,1.2,14.8,1.8c2.8,0.3,5.6,0.7,8.4,1   c7.7,0.9,15.4,1.9,23.2,2.8l3.4,0.4l9.2,1.1c8.8,1.1,17.7,2.1,26.5,3.3c3.9,0.5,7.8,1,11.7,1.6c3.6,0.5,7.3,1,10.9,1.5   c3.1,0.4,6.1,0.7,9.2,1.1c2.7,0.3,5.3,0.6,8,0.9c2.4,0.3,4.7,0.6,7.1,1l3.1,0.5l2.2,0.3l0.6,2.1l0.1,0.4l0.1,0.4l0.7,2.3l-2,1.5   c-0.2,0.1-0.3,0.3-0.5,0.4c-0.6,0.5-1.3,1.1-2.3,1.6c-6.7,3-13.3,5.9-20,8.8c-10.1,4.3-20.1,8.7-30.2,13c-5,2.1-10,4.2-15,6.3   l-2.6,1.1l-7.4,3.1c-3.8,1.6-7.5,3.1-11.3,4.7c-2.4,1-4.8,2-7.1,3.1c-3.1,1.3-6.1,2.6-9.2,3.9c2.9,4.3,5.7,8.7,8.5,13.1   c1.4,2.1,2.8,4.3,4.1,6.4c1.6,2.4,3.2,4.9,4.8,7.3c3.2,5,6.6,10.1,9.8,15.3c2.7,4.3,5.3,8.7,7.9,13.1c2.6,4.4,5.3,8.8,8,13.1   c2.7,4.3,5.4,8.5,8.2,12.7c2.5,3.8,4.9,7.6,7.4,11.4c2.7,4.3,5.4,8.6,8,13c2.7,4.3,5.3,8.7,8,13c1.8,2.9,3.8,5.8,5.7,8.7   c2.3,3.4,4.6,6.9,6.8,10.4c4,6.4,7.9,13,11.6,19.4c1.5,2.5,3,5.1,4.5,7.6c0.3,0.4,0.5,0.9,0.8,1.6l0.5,1.1l3,6l-6.7-1   c-0.5-0.1-1-0.1-1.4-0.2c-1.1-0.1-2.1-0.2-3.3-0.7c-3.7-1.5-7.4-3-11.1-4.4c-4.4-1.8-8.7-3.5-13.1-5.2c-4.6-1.8-9.3-3.6-13.9-5.3   c-5.2-2-10.4-3.9-15.6-6c-4-1.6-8.1-3.3-12.1-4.9c-3.9-1.6-7.8-3.2-11.7-4.8c-4-1.6-8-3.1-12.1-4.5c-2.9-1.1-5.7-2.1-8.6-3.2   c-5-1.9-9.9-3.8-14.9-5.7c-4.5-1.8-9.1-3.5-13.6-5.3c-3.1-1.2-6.2-2.3-9.3-3.5c-4.1-1.5-8.1-3-12.2-4.6c-2.6-1-5.3-2.2-8-3.6   c-0.8,0.8-1.7,1.7-2.5,2.5c-3.1,3.1-6.3,6.3-9.5,9.4c-4.8,4.5-9.6,9-14.5,13.5c-3.4,3.2-6.8,6.3-10.2,9.5   c-4.4,4.1-8.8,8.3-13.2,12.5l-3.8,3.6c-1.6,1.5-3.2,3-4.8,4.6c-3.1,3-6.3,6-9.5,9c-3.7,3.4-7.5,6.7-11.2,10.1   c-5.3,4.7-10.7,9.5-15.9,14.4c-7.3,6.8-14.6,13.8-21.6,20.7c-2.9,2.8-5.9,5.7-8.8,8.5l-0.6,0.6c-4.7,4.6-9.6,9.3-15,13.8l-6.8,5.7   l1.1-8.8c0-0.2,0-0.3,0-0.5c0-0.8,0.1-2,0.7-3.2c2-3.8,3-8,4-12.5c0.4-1.9,0.9-3.8,1.4-5.7c1.6-5.8,3.1-11.8,4.4-17.6l0.5-2.2   c1-4,1.9-8.1,2.8-12.1c1.5-6.3,2.9-12.5,4.5-18.7c1.4-5.7,3-11.5,4.5-17c0.8-3,1.7-6,2.5-9.1c1-3.8,2.1-7.7,3-11.5   c0.9-3.9,1.8-7.7,2.7-11.6c1.4-6.1,2.8-12.3,4.3-18.5c1.4-5.8,3-11.6,4.6-17.2l1.7-6c0.4-1.6,0.9-3.2,1.4-4.8   c0.8-2.7,1.6-5.4,2.2-8.1c1.6-6.9,3.1-13.7,4.7-20.6l2-9.2c0.1-0.5,0.2-1,0.3-1.4c0.2-1.3,0.5-2.7,1-4.1l0,0   c-4.6-2.8-9.1-5.7-13.7-8.5c-5.6-3.4-11.1-6.9-16.6-10.4c-3.3-2.1-6.7-4.2-10-6.3c-4.7-3-9.4-6-14.1-8.9c-6.5-4-13-7.9-19.6-11.9   c-3.4-2-6.7-4.1-10.1-6.1c-1.3-0.8-1.6-2.1-1.7-2.5l-1.3-4L60.1,172.2z"/>
</g>
</svg>